# xmcd
#
# Track frame offsets:
#	150
#	15523
#	30674
#	47514
#
# Disc length: 864 seconds
#
# Revision: 2
# Processed by: cddbd v1.5.2PL0 Copyright (c) Steve Scherf et al.
# Submitted via: EasyCDDAExtractor 12.0.0.1
#
DISCID=22035e04
DTITLE=John O'Dea - Australia's Heart and Soul
DYEAR=2007
DGENRE=Country
TTITLE0=Rich Man's Trinket
TTITLE1=Charlotte Brown
TTITLE2=Two Little Boys
TTITLE3=As If He Knows
EXTD=
EXTT0=
EXTT1=
EXTT2=
EXTT3=
PLAYORDER=
